<?xml version="1.0" standalone="no"?>
<!DOCTYPE svg PUBLIC "-//W3C//DTD SVG 20010904//EN"
 "http://www.w3.org/TR/2001/REC-SVG-20010904/DTD/svg10.dtd">
<svg version="1.0" xmlns="http://www.w3.org/2000/svg"
 width="16.000000pt" height="16.000000pt" viewBox="0 0 16.000000 16.000000"
 preserveAspectRatio="xMidYMid meet">
<metadata>
Created by potrace 1.11, written by Peter Selinger 2001-2013
</metadata>
<g transform="translate(0.000000,16.000000) scale(0.002842,-0.002842)"
fill="#000000" stroke="none">
<path d="M2584 5559 c-387 -81 -698 -371 -809 -754 -43 -149 -47 -254 -42
-1225 3 -880 4 -907 25 -992 97 -399 387 -699 778 -804 84 -23 121 -27 244
-28 161 -1 238 11 370 56 332 115 582 388 683 746 21 76 22 86 25 1062 2 717
0 1005 -8 1060 -61 389 -339 719 -714 846 -166 57 -379 70 -552 33z"/>
<path d="M1004 3431 c-51 -23 -99 -81 -113 -137 -14 -55 -14 -492 0 -644 77
-841 685 -1530 1504 -1704 66 -14 137 -28 158 -31 l37 -6 -2 -217 -3 -217
-460 -5 c-437 -5 -462 -6 -494 -25 -48 -28 -88 -82 -103 -137 -24 -91 24 -190
112 -236 l45 -22 1126 2 1125 3 42 27 c127 85 127 271 0 356 l-42 27 -463 3
-463 3 0 219 0 220 23 4 c260 45 422 93 592 175 541 258 929 756 1050 1346 31
148 48 421 44 670 -4 170 -5 183 -30 230 -36 72 -92 108 -173 113 -49 3 -71 0
-103 -16 -51 -27 -99 -82 -112 -129 -6 -21 -13 -182 -15 -358 -3 -271 -7 -335
-24 -416 -94 -450 -379 -827 -782 -1038 -171 -90 -371 -145 -572 -160 -788
-57 -1480 506 -1587 1292 -6 43 -11 205 -11 359 0 181 -4 294 -11 319 -27 87
-111 149 -204 149 -27 0 -68 -9 -91 -19z"/>
</g>
</svg>
