<?xml version="1.0" standalone="no"?>
<!DOCTYPE svg PUBLIC "-//W3C//DTD SVG 20010904//EN"
 "http://www.w3.org/TR/2001/REC-SVG-20010904/DTD/svg10.dtd">
<svg version="1.0" xmlns="http://www.w3.org/2000/svg"
 width="16.000000pt" height="16.000000pt" viewBox="0 0 16.000000 16.000000"
 preserveAspectRatio="xMidYMid meet">
<metadata>
Created by potrace 1.11, written by Peter Selinger 2001-2013
</metadata>
<g transform="translate(0.000000,16.000000) scale(0.000853,-0.000853)"
fill="#000000" stroke="none">
<path d="M9217 18594 c-1 -1 -56 -5 -122 -8 -66 -4 -133 -9 -150 -11 -16 -2
-64 -9 -105 -15 -544 -74 -1107 -295 -1545 -607 -33 -23 -64 -46 -70 -50 -5
-5 -28 -22 -50 -38 -39 -29 -113 -89 -185 -150 -64 -55 -296 -289 -351 -355
-30 -35 -60 -71 -68 -80 -28 -29 -163 -214 -208 -285 -25 -38 -56 -86 -68
-105 -36 -55 -111 -191 -156 -282 -64 -130 -173 -395 -184 -448 -1 -3 -13 -43
-28 -90 -51 -163 -110 -442 -123 -575 -3 -33 -7 -67 -9 -75 -16 -60 -19 -578
-19 -3200 0 -2634 3 -3139 18 -3215 2 -11 7 -47 10 -80 4 -33 13 -96 21 -140
8 -44 17 -95 20 -113 3 -18 21 -94 40 -168 175 -683 547 -1293 1081 -1774 110
-99 255 -210 399 -306 462 -308 984 -502 1535 -569 223 -28 625 -28 840 0 19
2 58 7 85 11 42 5 108 17 265 48 202 39 547 160 780 274 148 72 483 273 520
312 3 3 32 25 65 49 410 303 797 768 1040 1251 126 250 254 621 300 865 39
214 49 286 62 460 10 142 10 6083 -1 6195 -16 178 -28 269 -52 382 -7 37 -16
82 -19 100 -10 56 -63 251 -96 350 -118 353 -316 735 -521 1003 -21 28 -42 55
-46 60 -93 123 -353 399 -477 506 -417 360 -900 617 -1418 753 -72 20 -145 38
-162 41 -16 2 -41 7 -55 10 -60 14 -180 33 -240 40 -36 4 -78 9 -95 11 -83 10
-450 24 -458 18z"/>
<path d="M3471 11480 c-268 -75 -474 -298 -521 -567 -9 -51 -11 -304 -7 -1013
3 -520 7 -963 10 -985 2 -22 8 -76 11 -120 4 -44 9 -91 11 -105 2 -14 7 -52
11 -85 3 -33 8 -67 9 -75 2 -9 6 -43 10 -75 4 -33 9 -67 10 -75 1 -8 6 -35 10
-60 4 -25 9 -52 10 -60 2 -8 15 -76 30 -150 123 -631 386 -1329 718 -1905 86
-149 317 -509 337 -525 4 -3 23 -29 43 -58 31 -46 57 -80 114 -152 101 -128
148 -186 152 -190 7 -6 119 -135 152 -174 75 -91 477 -482 576 -561 14 -11 42
-35 62 -53 20 -17 92 -76 161 -130 407 -319 848 -588 1300 -791 63 -29 129
-58 145 -66 277 -125 719 -265 1135 -360 82 -19 294 -59 375 -70 22 -4 50 -8
62 -10 12 -2 65 -9 117 -16 l96 -12 0 -731 0 -731 -1437 -1 c-791 0 -1460 -3
-1488 -7 -271 -35 -501 -227 -584 -488 -27 -86 -33 -120 -33 -210 0 -122 17
-194 73 -314 97 -210 329 -371 567 -393 42 -4 1686 -7 3652 -6 2728 1 3590 4
3638 13 293 56 526 302 570 603 9 60 7 186 -5 228 -3 14 -7 30 -9 35 -49 203
-204 388 -397 475 -151 67 -45 63 -1664 64 l-1463 1 0 733 c0 632 2 732 14
732 16 0 222 27 266 34 14 3 43 7 65 11 22 3 47 7 55 10 8 2 33 6 54 10 22 3
112 21 200 41 842 183 1654 544 2346 1041 65 47 297 224 315 240 11 10 40 34
65 54 25 20 55 45 66 55 174 154 238 214 377 354 89 91 210 219 267 285 58 66
107 122 110 125 3 3 46 57 96 120 187 240 294 394 452 650 117 190 229 401
360 680 114 242 290 735 346 968 3 9 16 64 31 122 15 58 29 114 31 125 2 11 6
29 8 40 9 36 45 219 51 255 3 19 7 46 10 60 12 62 28 173 40 275 3 28 8 61 10
75 3 14 7 63 10 110 3 47 8 99 10 115 12 97 18 474 17 1185 0 786 -1 807 -21
885 -68 256 -266 452 -522 516 -119 30 -281 23 -389 -16 -141 -51 -252 -133
-349 -256 -36 -47 -99 -182 -117 -254 -16 -64 -17 -146 -19 -935 -2 -784 -5
-936 -20 -1080 -22 -221 -27 -258 -50 -390 -9 -52 -19 -108 -22 -125 -2 -16
-15 -76 -29 -133 -13 -56 -26 -113 -28 -125 -3 -12 -23 -85 -45 -162 -173
-607 -467 -1181 -865 -1690 -39 -49 -75 -95 -81 -101 -5 -7 -30 -36 -55 -65
-220 -259 -519 -539 -804 -752 -119 -88 -330 -231 -416 -280 -433 -249 -778
-399 -1191 -516 -213 -60 -476 -117 -634 -136 -27 -4 -57 -8 -65 -10 -8 -3
-46 -7 -85 -10 -38 -3 -81 -8 -94 -10 -149 -25 -758 -26 -956 -1 -16 2 -57 7
-90 10 -113 13 -140 16 -205 27 -217 37 -395 76 -565 124 -49 14 -97 27 -105
29 -8 2 -71 23 -140 46 -356 120 -685 275 -1015 477 -11 7 -27 16 -35 20 -8 4
-19 11 -25 15 -5 5 -55 38 -110 75 -55 36 -112 75 -127 87 -15 12 -48 37 -75
56 -277 202 -634 541 -848 804 -22 27 -51 63 -65 80 -14 17 -46 58 -70 91 -25
33 -49 64 -53 70 -217 274 -510 818 -653 1212 -77 212 -157 482 -188 634 -3
13 -12 58 -20 99 -9 41 -17 84 -20 95 -2 11 -9 56 -16 100 -12 82 -15 107 -24
160 -3 17 -8 62 -11 100 -3 39 -8 88 -10 110 -14 135 -18 381 -20 1120 -2 912
0 873 -65 1012 -85 182 -217 301 -425 381 -49 19 -84 24 -205 28 -94 3 -129 0
-189 -16z"/>
</g>
</svg>
