<svg version="1.1" xmlns="http://www.w3.org/2000/svg" viewBox="0 0 100 100" height="100"
width="100">

    <symbol id="ball" viewBox="0 0 100 100">
      <path
         d="m 36.627778,46.490553 4.910618,14.999707 15.847904,0 4.865977,-14.999707 -12.81225,-9.285533 -12.812249,9.285533 z M 49.440027,10.062694 c -22.097782,0 -39.9992178,17.901436 -39.9992178,39.999218 0,22.097782 17.9014358,39.999218 39.9992178,39.999218 22.097782,0 39.999218,-17.901436 39.999218,-39.999218 0,-22.097782 -17.901436,-39.999218 -39.999218,-39.999218 z m 27.633389,60.266679 -1.33926,-5.892742 -14.553287,1.785679 -6.205236,13.303312 5.17847,3.080297 c -3.348148,1.116049 -6.964149,1.741037 -10.714076,1.741037 -3.749926,0 -7.365927,-0.624988 -10.714076,-1.741037 l 5.17847,-3.080297 -6.205236,-13.303312 -14.553287,-1.785679 -1.339259,5.892742 c -4.196347,-5.714174 -6.651656,-12.678324 -6.651656,-20.267461 0,-0.04464 0,-0.08928 0,-0.133926 l 4.553483,3.973137 10.714076,-9.999805 -2.767803,-14.419361 -6.026668,0.535704 c 4.240988,-5.8481 10.312298,-10.35694 17.365732,-12.58904 l -2.366025,5.535606 12.812249,7.098076 12.81225,-7.098076 -2.366025,-5.535606 c 7.053433,2.2321 13.124743,6.74094 17.365731,12.58904 l -5.982025,-0.535704 -2.812445,14.419361 10.714076,9.999805 4.553482,-3.973137 c 0,0.04464 0,0.08928 0,0.133926 0,7.589137 -2.455309,14.553287 -6.651655,20.267461 z" />
    </symbol>


    <symbol id="gear" viewBox="0 0 100 100">
      <path
         id="path4143"
         style=""
         d="m 63.321916,50.374387 c 0,7.209296 -5.879923,13.089219 -13.089219,13.089219 -7.209297,0 -13.089219,-5.879923 -13.089219,-13.089219 0,-7.209297 5.879922,-13.089219 13.089219,-13.089219 7.209296,0 13.089219,5.879922 13.089219,13.089219 z m 26.178439,-5.573144 c 0,-0.869206 -0.613558,-1.687282 -1.482763,-1.840672 l -9.356747,-1.431633 c -0.511298,-1.687282 -1.227114,-3.374564 -2.09632,-5.010717 1.738412,-2.403099 3.630213,-4.652808 5.368625,-7.004777 0.255649,-0.357909 0.409038,-0.715817 0.409038,-1.175985 0,-0.409038 -0.10226,-0.818076 -0.357908,-1.124855 -2.147451,-3.016656 -5.726534,-6.186701 -8.436411,-8.692059 -0.357909,-0.306779 -0.818077,-0.511298 -1.278244,-0.511298 -0.460168,0 -0.920336,0.153389 -1.227115,0.460168 L 63.782084,23.9403 c -1.482763,-0.766947 -3.016656,-1.380504 -4.601679,-1.891802 l -1.431633,-9.407876 c -0.102259,-0.869206 -0.920336,-1.533893 -1.840671,-1.533893 l -11.350808,0 c -0.920335,0 -1.636152,0.613557 -1.840671,1.431634 -0.818076,3.067785 -1.124855,6.39122 -1.482763,9.510135 -1.585023,0.511298 -3.170046,1.175985 -4.652809,1.942931 l -7.055907,-5.470884 c -0.409038,-0.306779 -0.869206,-0.511298 -1.329374,-0.511298 -1.738412,0 -8.64093,7.464946 -9.868044,9.152228 -0.255649,0.357908 -0.460168,0.715816 -0.460168,1.175984 0,0.460168 0.204519,0.869206 0.511298,1.227115 1.891801,2.300839 3.732473,4.601678 5.470884,7.055907 -0.818076,1.533893 -1.482763,3.067786 -1.99406,4.703938 l -9.510136,1.431633 c -0.766947,0.15339 -1.380504,1.073725 -1.380504,1.840672 l 0,11.350807 c 0,0.869206 0.613557,1.687282 1.482763,1.840672 l 9.356747,1.380503 c 0.511298,1.738412 1.227114,3.425694 2.09632,5.061847 -1.738412,2.403098 -3.630213,4.652808 -5.368625,7.004777 -0.255649,0.357908 -0.409038,0.715817 -0.409038,1.175985 0,0.409038 0.10226,0.818076 0.357908,1.175984 2.14745,2.965526 5.726534,6.135572 8.436411,8.5898 0.357909,0.357909 0.818076,0.562428 1.278244,0.562428 0.460168,0 0.920336,-0.15339 1.278244,-0.460168 l 7.209297,-5.470885 c 1.482763,0.766947 3.016656,1.380504 4.601678,1.891801 l 1.431634,9.407877 c 0.102259,0.869206 0.920336,1.533893 1.840671,1.533893 l 11.350808,0 c 0.920335,0 1.636152,-0.613558 1.840671,-1.431634 0.818076,-3.067785 1.124855,-6.39122 1.482763,-9.510136 1.585023,-0.511297 3.170045,-1.175984 4.652809,-1.942931 l 7.055907,5.522015 c 0.409038,0.255649 0.869206,0.460168 1.329374,0.460168 1.738412,0 8.64093,-7.516075 9.868044,-9.152228 0.306778,-0.357908 0.460168,-0.715817 0.460168,-1.175984 0,-0.460168 -0.204519,-0.920336 -0.511298,-1.278244 -1.891801,-2.30084 -3.732473,-4.550549 -5.470885,-7.055908 0.818077,-1.482763 1.431634,-3.016656 1.994061,-4.652808 l 9.459006,-1.431633 c 0.818076,-0.15339 1.431634,-1.073725 1.431634,-1.840672 l 0,-11.350807 z" />
    </symbol>


    <symbol id="briefcase" viewBox="0 0 100 100">
      <path d="M89.1,46.7H10.9V29.9c0-3.8,3.1-7,7-7h15.3v-7c0-2.3,1.9-4.2,4.2-4.2h25.1c2.3,0,4.2,1.9,4.2,4.2v7h15.3c3.8,0,7,3.1,7,7
        V46.7z M89.1,71.8c0,3.8-3.1,7-7,7H17.9c-3.8,0-7-3.1-7-7V50.9h29.3v7c0,1.5,1.3,2.8,2.8,2.8h14c1.5,0,2.8-1.3,2.8-2.8v-7h29.3
        V71.8z M61.2,23v-5.6H38.8V23H61.2z M55.6,56.4H44.4v-5.6h11.2V56.4z"/>
    </symbol>


    <symbol id="twitter-square" viewBox="0 0 100 100">
      <path d="M83.5,71.8c0,6.9-5.6,12.6-12.6,12.6H29.1c-6.9,0-12.6-5.6-12.6-12.6V29.9c0-6.9,5.6-12.6,12.6-12.6h41.9
  c6.9,0,12.6,5.6,12.6,12.6V71.8z M67.1,39.9c1.9-1.1,3.4-3,4.1-5.1c-1.8,1-3.8,1.8-5.8,2.2c-1.7-1.8-4.1-2.9-6.7-2.9
  c-5.1,0-9.2,4.1-9.2,9.2c0,0.7,0,1.4,0.2,2.1c-7.6-0.4-14.4-4-18.9-9.6c-0.8,1.4-1.3,3-1.3,4.6c0,3.2,1.5,6,4,7.6
  c-1.5,0-3-0.5-4.4-1.1c0,0,0,0,0,0.1c0,4.5,3.4,8.2,7.5,9c-0.8,0.2-1.4,0.3-2.2,0.3c-0.6,0-1.1-0.1-1.7-0.2
  c1.2,3.6,4.5,6.3,8.6,6.4c-3.1,2.4-7.1,3.9-11.4,3.9c-0.7,0-1.5,0-2.2-0.1c4.1,2.6,8.9,4.1,14,4.1c16.8,0,26.1-14,26.1-26.1
  c0-0.4,0-0.8,0-1.2c1.8-1.3,3.4-2.9,4.6-4.8C70.7,39.1,68.9,39.6,67.1,39.9z"/>
    </symbol>
</svg>
