<svg xmlns="http://www.w3.org/2000/svg" version="1.1" viewBox="0 0 100 100">
 <path d="m38.571 27.143v-5.7144h22.857v5.7144h-22.857zm51.429 28.571h-30v7.1428c0 1.5628-1.2946 2.8572-2.8571 2.8572h-14.286c-1.562 0-2.857-1.294-2.857-2.857v-7.1428h-30v21.429c0 3.9284 3.2143 7.1428 7.1429 7.1428h65.714c3.929 0 7.143-3.215 7.143-7.143v-21.429zm-34.286 0h-11.429v5.7144h11.429v-5.7144zm34.286-21.428c0-3.929-3.214-7.143-7.143-7.143h-15.714v-7.1428c0-2.3664-1.9196-4.286-4.2857-4.286h-25.714c-2.3661 0-4.2857 1.9196-4.2857 4.286v7.1428h-15.714c-3.929 0-7.143 3.214-7.143 7.143v17.143h80v-17.143z"/>
</svg>
