<svg
   xmlns="http://www.w3.org/2000/svg"
   version="1.1"
   viewBox="0 0 100 100">


    <path
       id="path4143"
       style=""
       d="m 63.321916,50.374387 c 0,7.209296 -5.879923,13.089219 -13.089219,13.089219 -7.209297,0 -13.089219,-5.879923 -13.089219,-13.089219 0,-7.209297 5.879922,-13.089219 13.089219,-13.089219 7.209296,0 13.089219,5.879922 13.089219,13.089219 z m 26.178439,-5.573144 c 0,-0.869206 -0.613558,-1.687282 -1.482763,-1.840672 l -9.356747,-1.431633 c -0.511298,-1.687282 -1.227114,-3.374564 -2.09632,-5.010717 1.738412,-2.403099 3.630213,-4.652808 5.368625,-7.004777 0.255649,-0.357909 0.409038,-0.715817 0.409038,-1.175985 0,-0.409038 -0.10226,-0.818076 -0.357908,-1.124855 -2.147451,-3.016656 -5.726534,-6.186701 -8.436411,-8.692059 -0.357909,-0.306779 -0.818077,-0.511298 -1.278244,-0.511298 -0.460168,0 -0.920336,0.153389 -1.227115,0.460168 L 63.782084,23.9403 c -1.482763,-0.766947 -3.016656,-1.380504 -4.601679,-1.891802 l -1.431633,-9.407876 c -0.102259,-0.869206 -0.920336,-1.533893 -1.840671,-1.533893 l -11.350808,0 c -0.920335,0 -1.636152,0.613557 -1.840671,1.431634 -0.818076,3.067785 -1.124855,6.39122 -1.482763,9.510135 -1.585023,0.511298 -3.170046,1.175985 -4.652809,1.942931 l -7.055907,-5.470884 c -0.409038,-0.306779 -0.869206,-0.511298 -1.329374,-0.511298 -1.738412,0 -8.64093,7.464946 -9.868044,9.152228 -0.255649,0.357908 -0.460168,0.715816 -0.460168,1.175984 0,0.460168 0.204519,0.869206 0.511298,1.227115 1.891801,2.300839 3.732473,4.601678 5.470884,7.055907 -0.818076,1.533893 -1.482763,3.067786 -1.99406,4.703938 l -9.510136,1.431633 c -0.766947,0.15339 -1.380504,1.073725 -1.380504,1.840672 l 0,11.350807 c 0,0.869206 0.613557,1.687282 1.482763,1.840672 l 9.356747,1.380503 c 0.511298,1.738412 1.227114,3.425694 2.09632,5.061847 -1.738412,2.403098 -3.630213,4.652808 -5.368625,7.004777 -0.255649,0.357908 -0.409038,0.715817 -0.409038,1.175985 0,0.409038 0.10226,0.818076 0.357908,1.175984 2.14745,2.965526 5.726534,6.135572 8.436411,8.5898 0.357909,0.357909 0.818076,0.562428 1.278244,0.562428 0.460168,0 0.920336,-0.15339 1.278244,-0.460168 l 7.209297,-5.470885 c 1.482763,0.766947 3.016656,1.380504 4.601678,1.891801 l 1.431634,9.407877 c 0.102259,0.869206 0.920336,1.533893 1.840671,1.533893 l 11.350808,0 c 0.920335,0 1.636152,-0.613558 1.840671,-1.431634 0.818076,-3.067785 1.124855,-6.39122 1.482763,-9.510136 1.585023,-0.511297 3.170045,-1.175984 4.652809,-1.942931 l 7.055907,5.522015 c 0.409038,0.255649 0.869206,0.460168 1.329374,0.460168 1.738412,0 8.64093,-7.516075 9.868044,-9.152228 0.306778,-0.357908 0.460168,-0.715817 0.460168,-1.175984 0,-0.460168 -0.204519,-0.920336 -0.511298,-1.278244 -1.891801,-2.30084 -3.732473,-4.550549 -5.470885,-7.055908 0.818077,-1.482763 1.431634,-3.016656 1.994061,-4.652808 l 9.459006,-1.431633 c 0.818076,-0.15339 1.431634,-1.073725 1.431634,-1.840672 l 0,-11.350807 z" />
</svg>
