<svg xmlns="http://www.w3.org/2000/svg" version="1.1"  viewBox="0 0 100 100">
 <path d="m78.581 54.844c0-0.09781 0-0.20006-0.0496-0.29787l-28.531-23.519-28.531 23.519c0 0.09781-0.04962 0.20006-0.04962 0.29787v23.817c0 1.7366 1.439 3.1757 3.1756 3.1757h19.054v-19.054h12.703v19.054h19.054c1.7367 0 3.1756-1.4391 3.1756-3.1757v-23.817zm11.065-3.4238c0.54582-0.6451 0.44657-1.6872-0.19846-2.2332l-10.867-9.0305v-20.245c0-0.89318-0.69466-1.5876-1.5878-1.5876h-9.5269c-0.89315 0-1.5878 0.69445-1.5878 1.5876v9.676l-12.107-10.122c-2.084-1.737-5.4581-1.737-7.5421 0l-35.676 29.722c-0.64505 0.54595-0.74429 1.5881-0.19846 2.2332l3.0764 3.6718c0.24808 0.29787 0.64505 0.49616 1.042 0.54551 0.44657 0.0489 0.84353-0.09781 1.1909-0.34678l34.336-28.63 34.336 28.63c0.2977 0.24897 0.64505 0.34678 1.042 0.34678h0.14885c0.39693-0.0489 0.7939-0.24897 1.042-0.54551l3.0764-3.6718z"/>
</svg>
