<svg  xmlns="http://www.w3.org/2000/svg" version="1.1" viewBox="0 0 100 100">
 <path d="m29.168 83.241h-5.6502v-6.7591h-6.7591v-5.6502l4.8053-4.8053 12.409 12.409-4.8053 4.8053zm27.617-49.003c0 0.31681-0.1056 0.63366-0.36966 0.89769l-28.62 28.62c-0.26401 0.26401-0.58086 0.36966-0.89769 0.36966-0.68647 0-1.1617-0.47525-1.1617-1.1617 0-0.31681 0.1056-0.63366 0.36966-0.89769l28.621-28.62c0.26401-0.26401 0.58086-0.36966 0.89769-0.36966 0.68647 0 1.1617 0.47525 1.1617 1.1617zm-2.851-10.139-43.934 43.934v21.967h21.967l43.934-43.934-21.967-21.967zm36.066 5.069c0-1.7954-0.73927-3.538-1.9538-4.8053l-12.409-12.356c-1.267-1.268-3.01-2.007-4.805-2.007-1.796 0-3.538 0.739-4.753 2.007l-8.7657 8.7129 21.967 21.967 8.7657-8.7657c1.215-1.215 1.954-2.957 1.954-4.753z"/>
</svg>
