<svg  xmlns="http://www.w3.org/2000/svg" version="1.1" viewBox="0 0 100 100">
 <path d="m71.339 39.33c0.35716 1.5625-0.58036 3.0804-2.0982 3.4375-4.7321 1.1161-9.1518 2.0982-13.527 2.5893 0.17856 15.089 1.8304 19.286 3.7054 24.107l0.40178 0.9375c0.58036 1.4732-0.17856 3.125-1.6518 3.7054-0.31252 0.13392-0.66964 0.17856-1.0268 0.17856-1.1607 0-2.2321-0.66964-2.6786-1.8304l-0.35712-0.89286c-1.25-3.2143-2.4107-6.2054-3.1696-11.562h-1.875c-0.75893 5.3571-1.9196 8.3482-3.1696 11.562l-0.35712 0.89286c-0.44643 1.1607-1.5179 1.8304-2.6786 1.8304-0.35716 0-0.71429-0.04464-1.0268-0.17856-1.4732-0.58036-2.2321-2.2321-1.6518-3.7054l0.40178-0.9375c1.875-4.8214 3.5268-9.0179 3.7054-24.107-4.375-0.49107-8.7946-1.4732-13.527-2.5893-1.5179-0.35716-2.4554-1.875-2.0982-3.4375 0.35712-1.5179 1.875-2.4554 3.4375-2.0982 6.384 1.518 12.188 2.768 17.902 2.768 5.7143 0 11.518-1.25 17.902-2.7679 1.5625-0.35716 3.0804 0.58036 3.4375 2.0982zm-15.625-6.4732c0 3.1696-2.5446 5.7143-5.7143 5.7143-3.1696 0-5.7143-2.5446-5.7143-5.7143 0-3.1696 2.5446-5.7143 5.7143-5.7143 3.1696 0 5.7143 2.5446 5.7143 5.7143zm25.715 17.143c0-17.366-14.063-31.429-31.429-31.429s-31.429 14.062-31.429 31.429c0 17.366 14.062 31.429 31.429 31.429 17.366 0 31.429-14.062 31.429-31.429zm-31.429-34.286c18.884 0 34.286 15.402 34.286 34.286s-15.402 34.286-34.286 34.286-34.286-15.402-34.286-34.286 15.402-34.286 34.286-34.286zm40 34.286c0-22.098-17.902-40-40-40s-40 17.902-40 40 17.902 40 40 40 40-17.902 40-40z"/>
</svg>
